<?xml version="1.0" encoding="utf-8"?>
<!-- Generator: Adobe Illustrator 22.1.0, SVG Export Plug-In . SVG Version: 6.00 Build 0)  -->
<svg version="1.1" id="Layer_1" xmlns="http://www.w3.org/2000/svg" xmlns:xlink="http://www.w3.org/1999/xlink" x="0px" y="0px"
	 viewBox="0 0 180 180" style="enable-background:new 0 0 180 180;" xml:space="preserve">
<g>
	<path d="M84.9,159.7c0-15.5,0-30.9,0-46.4c-0.2,0-0.4,0-0.6,0c-5,0-10.1,0-15.1,0c-5,0-9.9-0.8-14.5-3c-7.6-3.7-12.7-9.5-14.5-17.8
		c-1.7-7.6-0.4-14.7,4.5-20.9c2.5-3.2,5.8-5.5,9.5-7.1c1.4-0.6,2.8-1.1,4.2-1.7c0.2-0.1,0.3-0.1,0.5-0.2c-1.1-0.8-2.3-1.5-3.4-2.3
		c-6.1-4.8-8.8-11.1-8.4-18.7c0.3-5.7,2.6-10.6,6.7-14.6c3-2.9,6.7-4.6,10.7-5.5c3.8-0.8,7.7-1.1,11.6-1.1c6.2,0,12.4,0,18.6,0
		c0.1,0,0.3,0,0.5,0c0,15.5,0,30.9,0,46.4c0.3,0,0.5,0,0.7,0c3.9,0,7.8,0,11.7,0.1c4,0.1,8.1,0.6,11.8,2.1
		c7.3,2.9,11.8,8.4,13.3,16.1c1.1,5.7,0.2,11.1-2.9,16c-2,3.2-4.8,5.6-8.1,7.5c-0.1,0.1-0.3,0.2-0.5,0.3c0.5,0.2,1,0.4,1.4,0.5
		c2.9,1.1,5.7,2.3,8.2,4.1c5.2,3.8,8.4,8.9,9.4,15.3c1.1,7.3-0.4,14-4.9,19.8c-4.2,5.4-9.8,8.7-16.4,10.1c-2.7,0.6-5.4,0.8-8.2,0.8
		c-8.3,0-16.7,0-25,0C85.4,159.7,85.2,159.7,84.9,159.7z M94,150.6c0.2,0,0.4,0,0.6,0c3.9,0,7.7,0,11.6,0c3.4,0,6.8-0.2,10.1-0.8
		c4.4-0.8,8.1-2.7,10.8-6.3c4.3-5.6,5-11.6,1.8-17.9c-2.1-4.3-5.8-6.9-10.2-8.6c-3.4-1.3-7-1.7-10.6-1.8c-4.6-0.2-9.1-0.2-13.7-0.2
		c-0.1,0-0.3,0-0.4,0C94,126.8,94,138.7,94,150.6z M84.9,68.5c-0.1,0-0.2,0-0.3,0c-5.8,0-11.5-0.1-17.3,0.6
		c-3.8,0.5-7.4,1.6-10.6,3.7c-5.6,3.9-8.3,9.2-7.4,16c0.9,6.7,4.9,11.3,11.2,13.7c3.1,1.2,6.4,1.5,9.7,1.5c4.8,0.1,9.5,0.1,14.3,0.1
		c0.1,0,0.3,0,0.4,0C84.9,92.2,84.9,80.4,84.9,68.5z M86,29.4c-0.2,0-0.3,0-0.5,0c-3.6,0-7.3,0-10.9,0c-2.9,0-5.8,0.3-8.6,1.1
		c-5.3,1.6-8.6,5-9.3,10.6c-0.8,6.7,2.7,13,8.9,15.8c2.9,1.3,6,1.8,9.1,1.9c3.6,0.2,7.2,0.2,10.7,0.2c0.1,0,0.3,0,0.4,0
		C86,49.2,86,39.4,86,29.4z M95.1,105.5c0.2,0,0.3,0,0.4,0c1.8,0,3.7,0,5.5,0c3.5-0.1,6.9-0.3,10.3-1.1c7.1-1.7,11.9-7.7,11.9-14.8
		c0.1-6.2-3.2-10.7-9.1-12.5c-2.8-0.9-5.7-1.2-8.7-1.2c-3.3,0-6.6,0-9.9,0c-0.2,0-0.3,0-0.5,0C95.1,85.8,95.1,95.7,95.1,105.5z"/>
</g>
</svg>
